<?xml version="1.0" standalone="no"?>
<!DOCTYPE svg PUBLIC "-//W3C//DTD SVG 20010904//EN"
 "http://www.w3.org/TR/2001/REC-SVG-20010904/DTD/svg10.dtd">
<svg version="1.0" xmlns="http://www.w3.org/2000/svg"
 width="713.000000pt" height="713.000000pt" viewBox="0 0 713.000000 713.000000"
 preserveAspectRatio="xMidYMid meet">
<metadata>
Created by potrace 1.11, written by Peter Selinger 2001-2013
</metadata>
<g transform="translate(0.000000,713.000000) scale(0.100000,-0.100000)"
fill="#000000" stroke="none">
<path d="M5365 6263 c-22 -8 -102 -30 -179 -48 -76 -19 -146 -41 -155 -50 -15
-12 -50 -15 -209 -15 -174 0 -195 2 -224 20 -42 25 -107 26 -156 1 -20 -10
-53 -21 -72 -24 -19 -3 -62 -11 -95 -16 -48 -9 -71 -8 -115 5 -30 9 -63 22
-74 30 -11 8 -43 14 -71 14 -31 0 -64 8 -88 20 -34 18 -56 20 -283 20 -236 0
-247 -1 -297 -24 -71 -32 -109 -43 -197 -57 -41 -6 -111 -26 -155 -44 -44 -18
-103 -40 -132 -49 -28 -9 -57 -24 -64 -32 -23 -29 -103 -62 -189 -79 -47 -9
-98 -26 -114 -37 -16 -11 -76 -36 -135 -54 -213 -69 -359 -119 -372 -130 -25
-21 -79 -45 -147 -65 -37 -12 -71 -25 -77 -29 -5 -4 -35 -15 -65 -25 -30 -10
-89 -35 -130 -55 -41 -21 -105 -48 -142 -60 -69 -22 -78 -28 -190 -118 -55
-44 -70 -62 -79 -96 -17 -65 -49 -114 -83 -127 -62 -24 -106 -85 -76 -104 6
-3 10 -17 10 -30 0 -17 8 -26 30 -34 21 -7 30 -17 30 -32 0 -37 -40 -190 -57
-216 -9 -13 -53 -53 -97 -88 -45 -35 -103 -86 -129 -114 -40 -42 -47 -56 -47
-90 l0 -40 137 -3 138 -3 -3 -45 c-2 -25 -11 -56 -21 -70 -27 -39 -169 -127
-241 -151 -36 -12 -81 -30 -101 -40 -79 -40 -119 -139 -84 -213 15 -32 16 -44
5 -99 -12 -67 -23 -87 -80 -157 -42 -51 -45 -58 -64 -150 -8 -37 -28 -93 -45
-125 -43 -81 -40 -125 12 -182 26 -29 42 -29 114 1 259 107 352 136 433 136
l55 0 -79 -79 c-75 -75 -86 -83 -220 -142 -78 -34 -179 -86 -225 -116 -47 -29
-89 -53 -95 -53 -11 0 -149 -101 -194 -144 -31 -29 -70 -92 -93 -153 l-9 -25
64 4 c42 2 71 10 84 21 10 9 29 17 41 17 12 0 34 6 49 14 15 7 58 21 95 30 37
9 96 30 131 46 44 21 78 30 113 30 l50 0 7 -37 c3 -21 6 -74 6 -117 l0 -79
-45 -41 c-49 -46 -55 -71 -26 -107 l18 -23 92 17 c53 9 125 31 170 52 43 19
88 35 99 35 23 0 53 -34 72 -82 8 -18 26 -51 41 -74 15 -22 31 -53 35 -68 11
-43 -16 -116 -68 -186 -26 -35 -48 -72 -48 -82 0 -27 32 -38 109 -38 77 0 129
15 232 65 37 18 91 38 119 45 63 15 125 72 139 129 6 20 60 235 121 479 96
384 115 452 148 510 65 115 88 170 157 384 37 115 71 210 76 214 18 11 47 80
94 222 40 123 54 152 95 201 26 32 57 75 68 97 22 43 177 642 169 651 -3 2
-27 -5 -52 -16 -73 -32 -94 -28 -135 27 -19 26 -47 82 -62 125 -27 77 -27 78
-13 150 24 115 45 168 92 235 l45 62 -31 0 c-18 0 -71 -15 -120 -34 -48 -19
-114 -39 -147 -46 -41 -9 -70 -22 -95 -45 -21 -19 -65 -42 -105 -55 -38 -12
-106 -42 -152 -67 -71 -38 -222 -98 -227 -90 -1 1 2 17 7 35 11 41 56 71 166
111 45 17 95 40 110 51 15 11 72 33 126 50 55 17 107 36 115 44 21 17 249 119
326 144 33 11 89 34 125 50 36 17 92 38 125 47 33 10 69 24 80 31 11 8 41 14
68 14 48 0 237 49 287 75 41 21 170 34 440 46 164 7 310 7 411 1 145 -8 161
-11 220 -40 42 -21 104 -38 182 -52 66 -12 126 -24 136 -28 38 -16 166 -132
214 -195 87 -115 117 -161 117 -180 0 -10 11 -44 25 -77 14 -33 25 -75 25 -94
0 -19 4 -46 10 -60 26 -69 -48 -430 -139 -680 -77 -213 -117 -262 -360 -446
-106 -80 -186 -121 -350 -179 -119 -43 -314 -82 -366 -74 -24 3 -40 -4 -79
-37 -27 -22 -59 -43 -72 -46 -13 -3 -24 -8 -24 -11 0 -9 64 -88 80 -97 8 -5
67 -62 130 -127 63 -65 135 -130 160 -146 53 -33 74 -51 143 -119 29 -28 84
-72 122 -97 123 -81 171 -117 239 -181 37 -35 100 -83 141 -107 41 -24 80 -55
87 -68 7 -13 42 -43 78 -66 107 -69 211 -178 253 -267 20 -41 41 -97 48 -124
14 -55 45 -124 57 -124 5 0 64 25 133 55 68 31 157 67 198 80 40 13 94 38 120
54 25 16 67 39 92 50 26 10 65 31 87 45 34 21 40 31 47 73 12 86 68 154 142
172 36 10 70 36 193 153 83 78 150 143 150 144 0 2 6 28 14 58 11 42 12 62 4
84 -9 23 -6 50 17 140 l27 112 42 10 c62 16 220 71 229 80 16 15 25 79 13 88
-13 11 -128 32 -173 32 -30 0 -43 14 -43 46 0 7 20 24 44 36 23 13 58 40 76
61 29 33 32 42 22 58 -15 24 -16 114 -1 141 6 11 31 29 56 40 39 17 49 28 74
83 16 35 38 96 49 136 27 97 50 128 133 175 72 40 127 95 127 126 0 26 -38 61
-58 53 -13 -5 -13 -2 3 13 11 11 52 31 91 46 68 25 94 50 94 88 0 13 -254 4
-338 -12 -27 -5 -92 -12 -143 -16 -102 -8 -110 0 -36 37 23 12 64 44 90 73 41
43 48 56 43 81 -30 185 -30 190 -7 222 28 38 40 111 20 124 -23 14 -123 11
-145 -6 -14 -11 -49 -14 -138 -15 -106 0 -117 2 -106 16 21 25 44 33 145 54
76 16 123 34 223 85 104 53 141 67 202 75 78 11 91 17 155 73 l40 34 -30 43
c-27 39 -32 42 -63 36 l-35 -5 7 45 6 45 -108 -7 c-116 -7 -173 -16 -240 -35
-39 -12 -44 -12 -63 8 -20 20 -21 22 -5 76 9 30 16 60 16 66 0 6 -37 50 -82
96 -79 84 -81 86 -67 112 8 14 42 49 77 77 75 60 70 71 -32 70 -60 0 -81 -5
-119 -27 -36 -21 -59 -27 -105 -27 -33 0 -79 -7 -103 -15 -32 -12 -62 -14
-117 -9 l-74 7 6 38 6 39 -234 0 c-159 0 -237 4 -242 11 -3 6 3 24 15 40 11
15 21 35 21 42 0 12 -68 68 -81 66 -2 0 -22 -7 -44 -16z m855 -392 c0 -12 -20
-25 -27 -18 -7 7 6 27 18 27 5 0 9 -4 9 -9z m-4760 -745 c-6 -19 -18 -40 -27
-47 -16 -14 -253 -92 -260 -86 -12 13 17 38 79 68 39 19 89 47 111 63 49 35
101 57 105 45 2 -5 -1 -24 -8 -43z m-228 -371 c-5 -24 -20 -35 -39 -28 -16 6
-17 25 -1 41 18 18 44 10 40 -13z m536 -57 c2 -10 -2 -18 -8 -18 -6 0 -65 -25
-131 -55 -66 -30 -143 -62 -172 -71 -29 -8 -73 -25 -99 -36 -27 -12 -51 -19
-54 -15 -13 13 8 46 38 58 17 7 58 31 91 53 40 27 95 50 171 72 122 36 159 38
164 12z m4390 -1414 c-2 -11 -12 -19 -23 -19 -14 0 -19 6 -17 20 5 24 23 38
35 26 5 -5 7 -17 5 -27z m-198 -293 c21 -17 22 -21 10 -36 -51 -61 -329 -215
-425 -235 -33 -6 -70 -18 -82 -26 -17 -11 -66 -14 -213 -14 -222 0 -235 7 -94
56 49 17 107 40 129 51 22 11 65 28 95 38 30 10 80 30 110 46 30 15 91 38 135
50 90 24 146 42 220 69 64 24 84 24 115 1z"/>
<path d="M3473 5159 c-23 -11 -46 -26 -52 -33 -5 -6 -48 -167 -96 -356 -47
-190 -88 -353 -91 -364 -6 -17 0 -18 122 -11 235 12 314 23 471 69 84 24 172
55 196 69 89 53 205 210 173 236 -8 6 -16 44 -20 89 -11 130 -13 133 -134 202
-67 39 -130 67 -171 76 -35 8 -74 22 -85 30 -15 10 -53 14 -146 14 -106 0
-131 -3 -167 -21z"/>
<path d="M2664 3165 c-9 -14 -43 -89 -74 -168 -32 -78 -81 -191 -110 -252 -40
-84 -130 -321 -130 -342 0 -2 51 -3 114 -3 84 0 117 -4 125 -14 8 -10 8 -16
-1 -23 -23 -19 -97 -53 -171 -79 -39 -15 -81 -34 -91 -43 -33 -28 -120 -221
-121 -268 0 -63 11 -69 103 -56 91 14 391 113 427 141 30 24 297 139 342 148
17 3 51 23 75 43 37 30 58 39 124 50 43 7 91 19 106 27 15 8 47 14 73 14 45 0
45 0 45 -35 0 -43 -31 -65 -135 -96 -72 -22 -138 -51 -165 -74 -8 -7 -33 -18
-55 -24 -22 -7 -84 -33 -138 -59 -94 -46 -98 -49 -124 -102 -34 -70 -91 -167
-120 -203 -30 -38 -40 -110 -19 -142 14 -22 24 -25 72 -25 46 0 66 6 113 34
31 19 74 39 96 45 22 6 49 18 59 26 11 8 39 15 62 15 63 0 273 55 358 94 41
19 88 37 106 41 18 4 64 22 103 40 40 18 98 40 130 49 31 9 91 32 132 51 59
26 76 39 81 60 3 14 5 27 3 29 -2 1 -46 31 -97 66 -51 35 -104 77 -118 95 -13
17 -46 44 -74 59 -27 15 -52 31 -55 37 -4 5 -25 19 -48 31 -23 11 -65 44 -94
72 -71 69 -113 105 -208 174 -82 60 -95 72 -247 214 -48 45 -109 93 -135 107
-40 22 -53 37 -80 90 -20 42 -41 70 -60 79 -15 8 -32 22 -37 31 -41 70 -111
93 -142 46z"/>
<path d="M3974 1922 c-55 -31 -116 -69 -135 -83 -19 -14 -60 -30 -93 -37 -70
-14 -75 -17 -126 -94 -70 -105 -51 -168 45 -154 45 7 205 80 216 98 4 6 10 28
13 48 3 21 15 58 25 83 17 40 23 45 61 50 24 3 47 11 51 19 7 10 11 10 21 0 6
-6 25 -12 41 -12 28 0 78 -39 89 -70 3 -11 15 -7 52 17 26 18 53 34 59 36 26
8 -8 62 -55 87 -26 14 -58 36 -71 48 -38 36 -79 28 -193 -36z"/>
<path d="M813 1879 c-66 -12 -132 -45 -143 -71 -6 -13 -23 -99 -39 -193 -16
-93 -46 -264 -66 -379 -20 -115 -35 -225 -33 -245 3 -34 5 -36 50 -44 37 -7
55 -5 91 11 49 22 44 8 69 195 7 53 15 97 18 97 3 0 39 -46 80 -101 88 -119
151 -179 189 -179 35 0 83 31 116 75 l28 36 -65 67 c-78 81 -128 140 -128 151
0 5 18 11 40 15 184 29 320 171 320 332 0 97 -34 147 -128 191 -96 45 -286 65
-399 42z m218 -165 c91 -21 124 -48 124 -102 0 -50 -18 -70 -93 -110 -59 -31
-120 -47 -209 -56 -44 -4 -53 -2 -53 11 0 35 43 249 53 261 13 17 94 15 178
-4z"/>
<path d="M6200 1863 c-86 -10 -112 -38 -136 -148 -18 -84 -61 -334 -74 -435
-7 -47 -20 -129 -31 -184 -10 -54 -19 -111 -19 -126 0 -51 48 -78 114 -66 63
12 76 31 102 156 13 62 27 117 31 121 4 4 42 12 83 18 86 13 199 62 276 121
69 52 110 116 129 205 15 68 15 78 1 129 -29 97 -104 159 -234 190 -63 16
-188 26 -242 19z m221 -214 c62 -31 75 -89 38 -166 -17 -36 -31 -48 -84 -73
-35 -17 -84 -33 -111 -37 l-47 -6 6 75 c4 63 25 173 43 227 6 19 103 7 155
-20z"/>
<path d="M5563 1840 c-176 -37 -344 -207 -387 -390 -30 -125 -13 -287 39 -376
33 -56 115 -111 188 -125 73 -15 168 -1 246 37 75 37 171 135 209 216 33 68
72 241 72 318 0 62 -31 162 -69 221 -51 81 -181 124 -298 99z m75 -235 c45
-38 66 -115 52 -200 -19 -119 -57 -180 -135 -216 -55 -25 -88 -24 -124 6 -75
63 -60 254 28 357 68 79 127 97 179 53z"/>
<path d="M4549 1811 c-71 -8 -86 -20 -94 -81 -12 -90 -13 -90 136 -90 l131 0
-6 -27 c-4 -16 -15 -75 -25 -133 -11 -58 -33 -184 -50 -280 -36 -197 -34 -215
23 -225 82 -16 142 21 151 93 3 26 15 92 25 147 11 55 31 169 45 254 14 85 28
158 30 161 2 4 62 10 132 13 103 5 130 9 140 23 19 25 27 102 14 130 l-11 24
-292 -1 c-161 -1 -318 -5 -349 -8z"/>
<path d="M3972 1793 c-22 -20 -44 -88 -63 -203 -7 -41 -17 -81 -22 -87 -6 -9
-42 -13 -112 -13 l-103 0 -20 -47 c-20 -48 -20 -94 1 -120 6 -9 40 -13 104
-13 85 0 94 -2 89 -17 -12 -43 -28 -167 -29 -230 -3 -95 29 -157 98 -193 43
-22 62 -25 150 -25 125 1 205 23 252 70 42 42 43 76 4 116 -35 34 -53 36 -121
9 -28 -11 -64 -20 -81 -20 -43 0 -86 25 -93 55 -5 21 10 148 29 231 4 19 15
22 109 32 58 5 109 13 115 16 5 3 14 28 21 55 9 40 9 55 -2 78 l-14 28 -93 -4
-94 -3 6 23 c4 13 14 72 24 131 16 103 16 108 -2 128 -24 27 -123 29 -153 3z"/>
<path d="M3276 1633 c-4 -5 -47 -8 -94 -8 -112 0 -160 -23 -263 -125 -82 -82
-115 -132 -155 -231 -35 -86 -44 -220 -20 -283 21 -55 83 -113 131 -122 54
-10 123 1 155 25 16 11 36 18 44 15 11 -4 47 25 112 90 53 53 97 96 99 96 2 0
10 -21 19 -46 23 -68 62 -130 97 -154 41 -30 88 -21 128 26 38 42 39 67 5 115
-14 21 -40 89 -58 156 -18 65 -40 130 -50 146 -18 27 -18 28 0 48 26 29 33
149 10 184 -10 15 -26 25 -40 25 -14 0 -30 10 -40 25 -16 25 -63 35 -80 18z
m-36 -203 c13 -8 13 -16 -4 -62 -38 -108 -174 -276 -241 -298 -54 -18 -106 13
-76 46 5 5 14 27 21 49 39 123 141 245 221 263 59 13 62 13 79 2z"/>
<path d="M1625 1581 c-38 -10 -93 -29 -120 -43 -140 -72 -248 -273 -231 -430
16 -157 106 -238 265 -238 36 0 89 6 116 14 119 32 235 116 235 170 0 28 -51
76 -80 76 -11 0 -53 -18 -95 -40 -81 -43 -152 -53 -198 -29 -52 28 -50 59 5
59 243 0 418 138 418 331 0 39 -6 55 -30 83 -57 64 -153 80 -285 47z m145
-180 c0 -58 -91 -111 -191 -111 -56 0 -62 5 -44 40 28 54 116 98 198 99 34 1
37 -1 37 -28z"/>
<path d="M2039 1547 c-15 -12 -34 -34 -44 -49 -21 -34 -37 -98 -23 -98 5 0 20
-11 33 -25 21 -20 25 -33 24 -82 0 -32 -4 -78 -8 -103 -5 -25 -17 -94 -27
-154 l-18 -108 27 -24 c46 -39 123 -28 170 23 11 13 26 70 43 159 35 192 73
258 163 285 48 14 88 -1 97 -37 4 -16 -6 -102 -25 -208 -37 -212 -37 -217 -11
-241 31 -28 122 -17 159 19 34 32 44 67 71 236 35 221 25 315 -41 375 -45 41
-92 55 -181 55 -75 0 -142 -19 -200 -57 l-38 -26 -22 28 c-22 28 -74 55 -105
55 -10 -1 -30 -11 -44 -23z"/>
</g>
</svg>
