<svg xmlns="http://www.w3.org/2000/svg" id="Layer_1" version="1.1" viewBox="0 0 128 128" xml:space="preserve"><style>.st1{fill:#fff}</style><circle cx="64" cy="64" r="64" fill="transparent"/><path d="M103 29H53c-.6 0-1 .4-1 1v12c0 .6.4 1 1 1h50c.6 0 1-.4 1-1V30c0-.6-.4-1-1-1zM103 57H53c-.6 0-1 .4-1 1v12c0 .6.4 1 1 1h50c.6 0 1-.4 1-1V58c0-.6-.4-1-1-1zM103 85H53c-.6 0-1 .4-1 1v12c0 .6.4 1 1 1h50c.6 0 1-.4 1-1V86c0-.6-.4-1-1-1zM37 29H25c-.6 0-1 .4-1 1v12c0 .6.4 1 1 1h12c.6 0 1-.4 1-1V30c0-.6-.4-1-1-1zM37 57H25c-.6 0-1 .4-1 1v12c0 .6.4 1 1 1h12c.6 0 1-.4 1-1V58c0-.6-.4-1-1-1zM37 85H25c-.6 0-1 .4-1 1v12c0 .6.4 1 1 1h12c.6 0 1-.4 1-1V86c0-.6-.4-1-1-1z" class="st1"/></svg>